<svg width="1444" height="289" viewBox="0 0 1444 289" fill="none" xmlns="http://www.w3.org/2000/svg">
<g filter="url(#filter0_i_1_3)">
<path d="M1442 2H2.00012V286L72.0001 266.5L165 286L232.5 266.5L300 286L389 266.5L451.5 286L534.5 266.5L594 286L670.5 266.5L738 286L788 266.5L848.5 286L904 266.5L961 286L1035.5 266.5L1108.5 286L1178 266.5L1242 286L1304.5 266.5L1361.5 286L1442 257V2Z" fill="#392467"/>
<path d="M1442 2H2.00012V286L72.0001 266.5L165 286L232.5 266.5L300 286L389 266.5L451.5 286L534.5 266.5L594 286L670.5 266.5L738 286L788 266.5L848.5 286L904 266.5L961 286L1035.5 266.5L1108.5 286L1178 266.5L1242 286L1304.5 266.5L1361.5 286L1442 257V2Z" fill="#1A2241" fill-opacity="0.57"/>
</g>
<path d="M1443 2V1H1442H2.00012H1.00012V2V286V287.317L2.26848 286.963L72.0335 267.529L164.795 286.979L165.039 287.03L165.278 286.961L232.5 267.541L299.723 286.961L299.966 287.031L300.214 286.977L388.955 267.534L451.202 286.955L451.463 287.036L451.729 286.973L534.456 267.538L593.689 286.95L593.965 287.041L594.247 286.969L670.484 267.536L737.723 286.961L738.048 287.055L738.363 286.932L788.032 267.561L848.193 286.952L848.514 287.055L848.832 286.943L904.004 267.558L960.676 286.946L960.962 287.044L961.253 286.967L1035.5 267.534L1108.24 286.966L1108.51 287.037L1108.77 286.963L1177.99 267.542L1241.71 286.957L1242 287.046L1242.3 286.955L1304.49 267.552L1361.18 286.946L1361.51 287.06L1361.84 286.941L1442.34 257.941L1443 257.703V257V2Z" stroke="#0F2167" stroke-width="2"/>
<defs>
<filter id="filter0_i_1_3" x="0.00012207" y="0" width="1444" height="292.633" filterUnits="userSpaceOnUse" color-interpolation-filters="sRGB">
<feFlood flood-opacity="0" result="BackgroundImageFix"/>
<feBlend mode="normal" in="SourceGraphic" in2="BackgroundImageFix" result="shape"/>
<feColorMatrix in="SourceAlpha" type="matrix" values="0 0 0 0 0 0 0 0 0 0 0 0 0 0 0 0 0 0 127 0" result="hardAlpha"/>
<feOffset dy="4"/>
<feGaussianBlur stdDeviation="2"/>
<feComposite in2="hardAlpha" operator="arithmetic" k2="-1" k3="1"/>
<feColorMatrix type="matrix" values="0 0 0 0 0 0 0 0 0 0 0 0 0 0 0 0 0 0 0.25 0"/>
<feBlend mode="normal" in2="shape" result="effect1_innerShadow_1_3"/>
</filter>
</defs>
</svg>
